<mxfile host="www.draw.io" modified="2020-01-07T18:05:49.559Z" agent="Mozilla/5.0 (Windows NT 10.0; Win64; x64) AppleWebKit/537.36 (KHTML, like Gecko) Chrome/79.0.3945.88 Safari/537.36" etag="jv78jNdNt6AAxjLV5S_f" version="12.4.9" type="github">
  <diagram id="5Hu7Rquyqc3oWw3ipiqS" name="Page-1">
    <mxGraphModel dx="3131" dy="7889" grid="1" gridSize="10" guides="1" tooltips="1" connect="1" arrows="1" fold="1" page="1" pageScale="1" pageWidth="1100" pageHeight="850" math="0" shadow="0">
      <root>
        <mxCell id="0"/>
        <mxCell id="1" parent="0"/>
        <mxCell id="SyCFYfF8Eu6jpnVWFIkm-150" value="" style="rounded=1;whiteSpace=wrap;html=1;absoluteArcSize=1;arcSize=14;strokeWidth=2;labelBackgroundColor=none;fontSize=16;" parent="1" vertex="1">
          <mxGeometry x="-1090" y="-6790" width="1090" height="820" as="geometry"/>
        </mxCell>
        <mxCell id="SyCFYfF8Eu6jpnVWFIkm-148" value="" style="rounded=1;whiteSpace=wrap;html=1;absoluteArcSize=1;arcSize=14;strokeWidth=2;labelBackgroundColor=#B9E0A5;fillColor=none;gradientColor=#ffffff;fontSize=16;opacity=75;" parent="1" vertex="1">
          <mxGeometry x="-720" y="-6770" width="680" height="710" as="geometry"/>
        </mxCell>
        <mxCell id="tzoMgsybaCTW6t5TssvO-31" value="" style="shape=image;html=1;verticalAlign=top;verticalLabelPosition=bottom;labelBackgroundColor=#ffffff;imageAspect=0;aspect=fixed;image=https://cdn2.iconfinder.com/data/icons/freecns-cumulus/16/519904-098_Spreadsheet-128.png" parent="1" vertex="1">
          <mxGeometry x="-978.75" y="-6560" width="55" height="55" as="geometry"/>
        </mxCell>
        <mxCell id="tzoMgsybaCTW6t5TssvO-33" value="" style="strokeWidth=2;html=1;shape=mxgraph.flowchart.database;whiteSpace=wrap;fillColor=#d5e8d4;strokeColor=#82b366;gradientColor=#E6FFCC;" parent="1" vertex="1">
          <mxGeometry x="-1050" y="-6265.01" width="197.49" height="185.01" as="geometry"/>
        </mxCell>
        <mxCell id="SyCFYfF8Eu6jpnVWFIkm-112" value="" style="outlineConnect=0;dashed=0;verticalLabelPosition=bottom;verticalAlign=top;align=center;html=1;shape=mxgraph.aws3.athena;fillColor=#F58534;gradientColor=none;labelBackgroundColor=#FFE6CC;strokeColor=#9933FF;strokeWidth=2;fontSize=16;opacity=75;" parent="1" vertex="1">
          <mxGeometry x="-390" y="-6220" width="130" height="140" as="geometry"/>
        </mxCell>
        <mxCell id="SyCFYfF8Eu6jpnVWFIkm-114" value="" style="outlineConnect=0;dashed=0;verticalLabelPosition=bottom;verticalAlign=top;align=center;html=1;shape=mxgraph.aws3.glue;fillColor=#F58534;gradientColor=none;labelBackgroundColor=#FFE6CC;strokeColor=#9933FF;strokeWidth=2;fontSize=16;opacity=75;" parent="1" vertex="1">
          <mxGeometry x="-395" y="-6570" width="140" height="154.99" as="geometry"/>
        </mxCell>
        <mxCell id="SyCFYfF8Eu6jpnVWFIkm-113" value="" style="outlineConnect=0;dashed=0;verticalLabelPosition=bottom;verticalAlign=top;align=center;html=1;shape=mxgraph.aws3.s3;fillColor=#E05243;gradientColor=none;labelBackgroundColor=#FFE6CC;strokeColor=#9933FF;strokeWidth=2;fontSize=16;opacity=75;" parent="1" vertex="1">
          <mxGeometry x="-670" y="-6727.5" width="130" height="150" as="geometry"/>
        </mxCell>
        <mxCell id="SyCFYfF8Eu6jpnVWFIkm-129" value="" style="endArrow=classic;html=1;strokeColor=#000033;strokeWidth=6;fontSize=16;exitX=0.5;exitY=0;exitDx=0;exitDy=0;exitPerimeter=0;" parent="1" source="tzoMgsybaCTW6t5TssvO-33" target="tzoMgsybaCTW6t5TssvO-31" edge="1">
          <mxGeometry width="50" height="50" relative="1" as="geometry">
            <mxPoint x="-935" y="-6360" as="sourcePoint"/>
            <mxPoint x="-850" y="-6420" as="targetPoint"/>
          </mxGeometry>
        </mxCell>
        <mxCell id="SyCFYfF8Eu6jpnVWFIkm-130" value="" style="endArrow=classic;html=1;strokeColor=#000033;strokeWidth=6;fontSize=16;exitX=1;exitY=0.5;exitDx=0;exitDy=0;entryX=0;entryY=0.5;entryDx=0;entryDy=0;entryPerimeter=0;" parent="1" source="tzoMgsybaCTW6t5TssvO-31" target="SyCFYfF8Eu6jpnVWFIkm-113" edge="1">
          <mxGeometry width="50" height="50" relative="1" as="geometry">
            <mxPoint x="-750" y="-6620" as="sourcePoint"/>
            <mxPoint x="-700" y="-6670" as="targetPoint"/>
          </mxGeometry>
        </mxCell>
        <mxCell id="SyCFYfF8Eu6jpnVWFIkm-132" value="" style="edgeStyle=segmentEdgeStyle;endArrow=classic;html=1;strokeColor=#82b366;strokeWidth=5;fontSize=16;entryX=0;entryY=0.5;entryDx=0;entryDy=0;entryPerimeter=0;fillColor=#d5e8d4;" parent="1" source="SyCFYfF8Eu6jpnVWFIkm-113" target="SyCFYfF8Eu6jpnVWFIkm-112" edge="1">
          <mxGeometry width="50" height="50" relative="1" as="geometry">
            <mxPoint x="-1080" y="-5930" as="sourcePoint"/>
            <mxPoint x="-460" y="-6150" as="targetPoint"/>
            <Array as="points">
              <mxPoint x="-610" y="-6150"/>
            </Array>
          </mxGeometry>
        </mxCell>
        <mxCell id="SyCFYfF8Eu6jpnVWFIkm-139" value="&lt;font style=&quot;font-size: 18px&quot; face=&quot;Georgia&quot;&gt;Greenplum Data&lt;/font&gt;" style="text;html=1;align=center;verticalAlign=middle;resizable=0;points=[];labelBackgroundColor=#ffffff;fontSize=16;" parent="SyCFYfF8Eu6jpnVWFIkm-132" vertex="1" connectable="0">
          <mxGeometry x="-0.6971" y="-1" relative="1" as="geometry">
            <mxPoint x="1.2899999999999991" y="16.77000000000001" as="offset"/>
          </mxGeometry>
        </mxCell>
        <mxCell id="SyCFYfF8Eu6jpnVWFIkm-133" value="" style="edgeStyle=segmentEdgeStyle;endArrow=classic;html=1;strokeColor=#9673a6;strokeWidth=5;fontSize=16;exitX=1;exitY=0.5;exitDx=0;exitDy=0;exitPerimeter=0;fillColor=#e1d5e7;" parent="1" source="SyCFYfF8Eu6jpnVWFIkm-112" target="SyCFYfF8Eu6jpnVWFIkm-113" edge="1">
          <mxGeometry width="50" height="50" relative="1" as="geometry">
            <mxPoint x="-210" y="-6150" as="sourcePoint"/>
            <mxPoint x="-1030" y="-5980" as="targetPoint"/>
            <Array as="points">
              <mxPoint x="-140" y="-6150"/>
              <mxPoint x="-140" y="-6690"/>
            </Array>
          </mxGeometry>
        </mxCell>
        <mxCell id="SyCFYfF8Eu6jpnVWFIkm-142" value="&lt;font style=&quot;font-size: 18px&quot; face=&quot;Georgia&quot;&gt;Athena results&lt;/font&gt;" style="text;html=1;align=center;verticalAlign=middle;resizable=0;points=[];labelBackgroundColor=#ffffff;fontSize=16;" parent="SyCFYfF8Eu6jpnVWFIkm-133" vertex="1" connectable="0">
          <mxGeometry x="-0.4706" relative="1" as="geometry">
            <mxPoint x="9.57" y="77.57" as="offset"/>
          </mxGeometry>
        </mxCell>
        <mxCell id="SyCFYfF8Eu6jpnVWFIkm-138" value="" style="endArrow=classic;html=1;strokeColor=#b85450;strokeWidth=5;fontSize=16;entryX=0.5;entryY=0.025;entryDx=0;entryDy=0;entryPerimeter=0;fillColor=#f8cecc;" parent="1" source="SyCFYfF8Eu6jpnVWFIkm-114" target="SyCFYfF8Eu6jpnVWFIkm-112" edge="1">
          <mxGeometry width="50" height="50" relative="1" as="geometry">
            <mxPoint x="-1080" y="-5930" as="sourcePoint"/>
            <mxPoint x="-1030" y="-5980" as="targetPoint"/>
          </mxGeometry>
        </mxCell>
        <mxCell id="SyCFYfF8Eu6jpnVWFIkm-143" value="&lt;font style=&quot;font-size: 18px&quot; face=&quot;Georgia&quot;&gt;Greenplum Metadata&lt;/font&gt;" style="text;html=1;align=center;verticalAlign=middle;resizable=0;points=[];labelBackgroundColor=#ffffff;fontSize=16;" parent="SyCFYfF8Eu6jpnVWFIkm-138" vertex="1" connectable="0">
          <mxGeometry x="-0.479" y="2" relative="1" as="geometry">
            <mxPoint as="offset"/>
          </mxGeometry>
        </mxCell>
        <mxCell id="SyCFYfF8Eu6jpnVWFIkm-141" value="" style="endArrow=none;html=1;strokeColor=#b85450;strokeWidth=5;fontSize=16;entryX=0;entryY=0.5;entryDx=0;entryDy=0;entryPerimeter=0;exitX=1;exitY=0.79;exitDx=0;exitDy=0;exitPerimeter=0;fillColor=#f8cecc;" parent="1" source="SyCFYfF8Eu6jpnVWFIkm-113" target="SyCFYfF8Eu6jpnVWFIkm-114" edge="1">
          <mxGeometry width="50" height="50" relative="1" as="geometry">
            <mxPoint x="-1080" y="-5930" as="sourcePoint"/>
            <mxPoint x="-1030" y="-5980" as="targetPoint"/>
          </mxGeometry>
        </mxCell>
        <mxCell id="SyCFYfF8Eu6jpnVWFIkm-144" value="&lt;font face=&quot;Georgia&quot; style=&quot;font-size: 14px&quot;&gt;&lt;b&gt;Greenplum Data Warehouse Table&lt;/b&gt;&lt;/font&gt;" style="text;html=1;align=center;verticalAlign=middle;whiteSpace=wrap;rounded=0;labelBackgroundColor=none;fontSize=16;opacity=75;" parent="1" vertex="1">
          <mxGeometry x="-1050.01" y="-6070" width="197.49" height="40" as="geometry"/>
        </mxCell>
        <mxCell id="SyCFYfF8Eu6jpnVWFIkm-151" value="" style="shape=image;html=1;verticalAlign=top;verticalLabelPosition=bottom;labelBackgroundColor=#ffffff;imageAspect=0;aspect=fixed;image=https://cdn2.iconfinder.com/data/icons/freecns-cumulus/16/519904-098_Spreadsheet-128.png" parent="1" vertex="1">
          <mxGeometry x="-991.26" y="-6180" width="80" height="80" as="geometry"/>
        </mxCell>
      </root>
    </mxGraphModel>
  </diagram>
</mxfile>
